<svg width="21" height="23" viewBox="0 0 21 23" fill="none" xmlns="http://www.w3.org/2000/svg">
<path d="M20.2282 3.21897C20.188 2.92242 19.9802 2.67849 19.6993 2.59832L10.6962 0.02751C10.5678 -0.00916999 10.4323 -0.00916999 10.3038 0.02751L1.30071 2.59832C1.0198 2.67849 0.812001 2.92232 0.771787 3.21897C0.719569 3.60451 -0.471703 12.714 2.58383 17.2457C5.63575 21.7719 10.138 22.9319 10.3281 22.9791C10.3846 22.9931 10.4422 23 10.5 23C10.5578 23 10.6154 22.993 10.6719 22.9791C10.8621 22.9319 15.3644 21.7719 18.4162 17.2457C21.4717 12.7141 20.2804 3.60461 20.2282 3.21897ZM16.3058 8.53716L10.1648 14.8426C10.0219 14.9893 9.83453 15.0628 9.64722 15.0628C9.45992 15.0628 9.27252 14.9894 9.12962 14.8426L5.33268 10.944C5.19535 10.8031 5.11824 10.6119 5.11824 10.4126C5.11824 10.2132 5.19545 10.022 5.33268 9.8811L6.08659 9.10701C6.37247 8.81357 6.836 8.81347 7.12179 9.10701L9.64722 11.7001L14.5167 6.70006C14.654 6.55905 14.8402 6.47988 15.0343 6.47988C15.2285 6.47988 15.4147 6.55905 15.5519 6.70006L16.3058 7.47415C16.5917 7.76769 16.5917 8.24362 16.3058 8.53716Z" fill="#00DD80"/>
</svg>
